<?xml version="1.0" encoding="UTF-8"?>
<svg width="1200pt" height="1200pt" version="1.1" viewBox="0 0 1200 1200" xmlns="http://www.w3.org/2000/svg">
 <path d="m861.37 374.29h-237.61v-122.63c34.312-10.312 59.391-41.625 59.391-79.312 0-45.938-37.219-83.156-83.156-83.156s-83.156 37.219-83.156 83.156c0 37.547 25.078 69 59.391 79.312v122.63h-237.61c-78.703 0-142.55 63.844-142.55 142.55v451.45c0 78.703 63.844 142.55 142.55 142.55h522.71c78.703 0 142.55-63.844 142.55-142.55v-451.45c0-78.703-63.844-142.55-142.55-142.55zm-498.98 273.24c0-45.938 37.219-83.156 83.156-83.156s83.156 37.219 83.156 83.156-37.219 83.156-83.156 83.156-83.156-37.219-83.156-83.156zm390.98 260.16c-46.922 24.141-99.938 36.844-153.37 36.844-53.391 0-106.45-12.703-153.37-36.844-11.625-6-16.312-20.297-10.312-32.062 6-11.625 20.297-16.312 32.062-10.312 81.609 42 181.78 42 263.39 0 11.625-6 26.062-1.3125 32.062 10.312s1.4531 26.062-10.312 32.062zm1.0781-177c-45.938 0-83.156-37.219-83.156-83.156s37.219-83.156 83.156-83.156 83.156 37.219 83.156 83.156-37.219 83.156-83.156 83.156z" fill="#fff"/>
 <path d="m790.08 647.53c0 47.531-71.297 47.531-71.297 0s71.297-47.531 71.297 0" fill="#fff"/>
 <path d="m481.22 647.53c0 47.531-71.297 47.531-71.297 0s71.297-47.531 71.297 0" fill="#fff"/>
 <path d="m1075.2 588.14h-23.766v308.86h23.766c39.375 0 71.297-31.922 71.297-71.297v-166.31c0-39.375-31.922-71.297-71.297-71.297z" fill="#fff"/>
 <path d="m148.55 588.14h-23.766c-39.375 0-71.297 31.922-71.297 71.297v166.31c0 39.375 31.922 71.297 71.297 71.297h23.766z" fill="#fff"/>
</svg>
