<?xml version="1.0" encoding="UTF-8"?>
<svg width="1200pt" height="1200pt" version="1.1" viewBox="100 100 1000 1000" xmlns="http://www.w3.org/2000/svg">
 <path d="m615.84 1094.5c48.238-4.3203 56.52-11.398 38.762-55.32-17.281-42.84-35.762-85.441-56.52-126.72-17.281-34.441-21.84-68.039-6.4805-103.68 37.922-88.559 48.602-181.2 41.398-276.48-0.12109-1.6797 0.12109-3.4805 0-5.1602-5.0391-40.922 9-72.48 42.359-97.801 25.801-19.559 47.398-44.641 72.238-65.641 23.039-19.559 31.922-43.199 29.039-72.719-4.6797-47.641-7.9219-95.52-13.199-143.16-1.6797-15.359-4.1992-45.48-18.961-42.961-19.801 3.3594-12 33.602-12.359 49.801-0.96094 42.84 0.12109 85.68-0.83984 128.52-0.35938 17.52-15.121 61.68-36.961 72 23.52-57.602-35.281-77.879-73.801-41.039-11.398 10.801-20.16 23.039-23.16 39-2.0391 10.922 2.6406 25.078-14.879 32.16-37.68-27.359-71.879-58.199-73.441-109.8-0.60156-22.199-2.8789-41.281-4.0781-72.602-1.3203-34.559 3.3594-97.32-15.238-97.922-19.68-0.60156-15.84 20.281-16.32 31.441-0.83984 25.68 1.0781 51.48-0.83984 77.039-5.6406 75.602 3.7188 146.76 53.398 208.2 13.801 17.16 14.762 36.602 9.4805 58.32-8.5195 34.922-18.48 70.32-19.559 105.84-1.6797 53.039-17.641 100.8-38.52 147.96-9 20.398-15.238 42.238-26.281 61.441-27.121 46.922-28.078 92.879-5.7617 142.08 19.199 42.602 37.68 87.48-15.84 122.16-7.3203 4.8008-8.7617 14.52-2.6406 22.801 4.3203 5.7617 10.68 8.7617 17.762 8.3984 34.199-2.1602 79.199-58.68 71.039-92.398-7.1992-29.879-18-58.922-28.078-88.078-6.2383-18.238-10.922-36-2.2812-54.84 19.199-41.641 36.719-84.121 66.238-133.2-3.9609 32.398-3.8398 54.48-9.7188 74.879-13.199 45.961-5.0391 87.238 16.801 128.64 16.68 31.68 29.52 65.641 43.32 98.762 5.6406 13.441 8.6406 27.121-11.641 32.039-13.199 3.1211-30.121 5.2812-25.199 24.48 3.3633 12.719 23.641 15.961 50.762 13.559z"/>
</svg>
