<?xml version="1.0" encoding="UTF-8"?>
<svg width="1200pt" height="1200pt" version="1.1" viewBox="0 0 1200 1200" xmlns="http://www.w3.org/2000/svg">
 <path d="m925.2 190.8h-446.4c-22.277 0-43.645 8.8477-59.398 24.602s-24.602 37.121-24.602 59.398v446.4c0 22.277 8.8477 43.645 24.602 59.398s37.121 24.602 59.398 24.602h446.4c22.277 0 43.645-8.8477 59.398-24.602s24.602-37.121 24.602-59.398v-446.4c0-22.277-8.8477-43.645-24.602-59.398s-37.121-24.602-59.398-24.602zm12 530.4c0 3.1836-1.2617 6.2344-3.5156 8.4844-2.25 2.2539-5.3008 3.5156-8.4844 3.5156h-446.4c-6.6289 0-12-5.3711-12-12v-446.4c0-6.6289 5.3711-12 12-12h446.4c3.1836 0 6.2344 1.2617 8.4844 3.5156 2.2539 2.25 3.5156 5.3008 3.5156 8.4844z" fill="#fff"/>
 <path d="m274.8 466.8h26.398c12.863 0 24.746-6.8633 31.176-18 6.4336-11.141 6.4336-24.863 0-36-6.4297-11.141-18.312-18-31.176-18h-26.398c-22.277 0-43.645 8.8477-59.398 24.602s-24.602 37.121-24.602 59.398v446.4c0 22.277 8.8477 43.645 24.602 59.398s37.121 24.602 59.398 24.602h446.4c22.277 0 43.645-8.8477 59.398-24.602s24.602-37.121 24.602-59.398v-28.801c0-12.859-6.8594-24.746-18-31.176-11.137-6.4297-24.859-6.4297-36 0-11.137 6.4297-18 18.316-18 31.176v28.801c0 3.1836-1.2617 6.2344-3.5156 8.4844-2.25 2.2539-5.3008 3.5156-8.4844 3.5156h-446.4c-6.6289 0-12-5.3711-12-12v-446.4c0-6.6289 5.3711-12 12-12z" fill="#fff"/>
</svg>
