<?xml version="1.0" encoding="UTF-8"?>
<svg width="1200pt" height="1200pt" version="1.1" viewBox="0 0 1200 1200" xmlns="http://www.w3.org/2000/svg">
 <path d="m535.43 328.26h183.2l0.003906-263.19c0-7.4492-6.0625-13.508-13.508-13.508h-640.05c-7.4453 0-13.508 6.0625-13.508 13.508v1069.9c0 7.4492 6.0625 13.508 13.508 13.508h640.05c7.4492 0 13.508-6.0625 13.508-13.508l0.003906-263.19h-183.2c-52.094 0-94.477-42.395-94.477-94.508v-354.47c-0.003907-52.109 42.379-94.508 94.473-94.508zm-332.58 349.99h-81.051v-156.5h81.051z" fill="#ff814a"/>
 <path d="m1148.4 500.1v-77.336c0-7.4219-6.0234-13.457-13.426-13.457h-599.58c-7.4023 0-13.426 6.0391-13.426 13.457v77.332h626.43z" fill="#ff814a"/>
 <path d="m522.01 581.15v196.09c0 7.4219 6.0195 13.457 13.426 13.457h599.58c7.4023 0 13.426-6.0391 13.426-13.457v-196.09z" fill="#ff814a"/>
</svg>
