<?xml version="1.0" encoding="UTF-8"?>
<svg width="1200pt" height="1200pt" version="1.1" viewBox="0 0 1200 1200" xmlns="http://www.w3.org/2000/svg">
 <path d="m1058.3 377.39c0-27.562-10.734-53.438-30.188-72.938l-132.61-132.56c-19.453-19.5-45.375-30.188-72.938-30.188s-53.438 10.734-72.891 30.188l-67.125 67.078v0.046875l-476.44 476.44c-2.3906 2.3906-4.125 5.25-5.4844 8.25-0.42188 0.89062-0.70313 1.7812-0.98438 2.6719-0.32812 0.98438-0.84375 1.8281-1.0781 2.8594l-55.312 249.24c-4.875 21.984 1.7344 44.672 17.672 60.609 12.469 12.469 29.109 19.266 46.266 19.266 4.7812 0 9.5625-0.51562 14.344-1.5938l249.19-55.266c0.98438-0.23438 1.875-0.75 2.8594-1.0781 0.9375-0.32812 1.7812-0.60938 2.6719-0.98438 3.0469-1.4062 5.9062-3.0938 8.25-5.4844l476.44-476.44v-0.046875l67.078-67.125c19.547-19.5 30.281-45.375 30.281-72.938zm-593.68 556.82-198.84-198.84 436.69-436.69 198.89 198.89zm-255.24 67.594c-4.4062 0.9375-7.3125-1.1719-8.6719-2.5312-1.3594-1.3594-3.4688-4.3125-2.5312-8.6719l44.156-199.18 166.18 166.18zm778.92-591.28-47.25 47.25-198.84-198.89 47.25-47.25c18.281-18.281 48.047-18.281 66.281 0l132.56 132.56c18.281 18.328 18.281 48.047 0 66.328z" fill="#fff"/>
</svg>
