<?xml version="1.0" encoding="UTF-8"?>
<svg width="1200pt" height="1200pt" version="1.1" viewBox="0 0 1200 1200" xmlns="http://www.w3.org/2000/svg">
 <path d="m755.25 75h-310.5c-39.75 0-78 15.75-106.12 43.875l-219.75 219.75c-28.125 28.125-43.875 66.375-43.875 106.12v310.5c0 39.75 15.75 78 43.875 106.12l219.75 219.75c28.125 28.125 66.375 43.875 106.12 43.875h310.5c39.75 0 78-15.75 106.12-43.875l219.75-219.75c28.125-28.125 43.875-66.375 43.875-106.12v-310.5c0-39.75-15.75-78-43.875-106.12l-219.75-219.75c-28.125-28.125-66.375-43.875-106.12-43.875z"/>
</svg>
