<?xml version="1.0" encoding="UTF-8"?>
<svg width="1200pt" height="1200pt" version="1.1" viewBox="0 0 1200 1200" xmlns="http://www.w3.org/2000/svg">
 <path d="m599.41 67.668c88.203 0 176.46 0.41797 182.48 1.2656 45.641 6.3477 86.102 36.039 105.91 77.895 20.879 44 17.68 94.73-8.6094 135.67-5.3359 8.1914-20.422 24.105-81.152 84.859-45.34 45.375-77.719 76.75-82.293 79.809-16.914 11.328-36.727 19.359-55.777 22.805-6.4492 1.1055-11.977 1.6797-17.148 1.6797-5.5898 0-10.762-0.66797-16.223-2.0586-5.9492-1.5352-13.945-2.1406-26.441-2.1406-12.422 0-20.422 0.60547-26.367 2.1406-5.4961 1.3906-10.668 2.0586-16.262 2.0586-5.1719 0-10.703-0.57422-17.188-1.6797-19.047-3.4453-38.859-11.477-55.699-22.805-4.5742-3.0586-36.957-34.434-82.293-79.809-60.73-60.754-75.812-76.668-81.145-84.859-30.633-47.82-29.492-108.66 2.8906-155.71 7.4688-10.941 23.852-27.164 34.898-34.816 17.145-11.555 39.012-20.273 58.289-23.031 5.793-0.84375 93.93-1.2656 182.13-1.2656zm-1.4141 477.33c7.1953 0 15.426 1.2031 20.98 3.3281 24.531 9.1797 39.848 35.578 35.277 60.523-4.8203 26.762-28.371 46.207-53.891 46.207-2.7227 0-5.4648-0.22266-8.2109-0.67969-23.621-3.9023-41.984-22.27-46.098-45.988-4.8047-27.699 15.238-56.625 43.355-62.668 2.4453-0.49219 5.4219-0.72266 8.5859-0.72266zm-392.2-247.23c3.3984 0 8.0078 0.33203 19.848 1.1797 18.438 1.2969 43.965 11.094 61.719 23.488 11.961 8.2617 153.31 150.36 160.7 161.46 16 23.953 25.906 55.246 24.082 76.133-0.38672 4.3672-1.5234 13.164-2.6641 19.512-2.5156 14.539-2.5156 26.25 0 40.789 1.1445 6.2695 2.2812 15.223 2.6641 19.508 1.8242 20.965-8.082 52.188-24.082 76.141-7.2344 10.863-148.73 153.19-160.32 161.23-24 16.684-48.762 24.488-77.945 24.488-25.301 0-44.348-4.5938-66.293-16.223-35.055-18.59-59.586-50.883-70.102-92.055l-2.8203-11.094v-364.76l2.8203-11.094c10.668-41.703 35.277-73.688 71.246-92.59 17.902-9.2617 36.039-14.387 56.766-15.922 1.5781-0.11719 2.8594-0.18359 4.3828-0.18359zm784.85 0.28125c7.4414 0 15.066 0.55078 22.879 1.6602 30.094 4.3594 62.785 22.578 82.672 46.219 15.238 18.211 24.688 36.578 30.781 60.527l2.7422 11.094v364.76l-2.7422 11.094c-10.594 41.168-35.047 73.461-70.102 92.055-22.02 11.633-41.066 16.223-66.285 16.223-29.262 0-54.023-7.8047-78.027-24.488-11.504-8.0391-153-150.36-160.24-161.23-16-23.953-25.906-55.172-24.152-76.141 0.37891-4.2852 1.5234-13.238 2.6641-19.508 2.5898-14.539 2.5898-26.25 0-40.789-1.1445-6.3477-2.2852-15.148-2.6641-19.512-1.7539-20.887 8.1523-52.18 24.152-76.133 7.3867-11.094 148.73-153.2 160.62-161.46 23.383-16.258 49.207-24.387 77.703-24.387zm-347.83 430.18c5.1719 0 10.703 0.57422 17.148 1.6797 19.051 3.4453 38.863 11.477 55.777 22.805 4.5742 3.0586 36.957 34.43 82.293 79.883 60.73 60.684 75.812 76.598 81.152 84.785 26.285 40.938 29.484 91.672 8.6094 135.67-19.812 41.859-60.273 71.547-105.91 77.977-6.7812 0.95312-94.238 1.4336-181.7 1.4336-87.465 0-174.94-0.48047-181.76-1.4336-45.562-6.4297-86.102-36.117-105.91-77.977-20.801-43.996-17.602-94.73 8.6914-135.67 5.332-8.1875 20.414-24.102 81.145-84.785 45.34-45.453 77.719-76.824 82.293-79.883 23.07-15.488 50.137-24.328 72.516-24.328 5.9258 0 11.527 0.625 16.633 1.9062 5.9492 1.5273 13.945 2.1406 26.367 2.1406 12.496 0 20.492-0.61328 26.441-2.1406 5.457-1.3906 10.633-2.0586 16.223-2.0586zm-43.008-704.16c-97.285 0-194.53 0.67188-200.82 2.0078-27.887 6.1211-55.625 19.59-78.863 38.641-5.1797 4.2109-63.621 62.059-129.61 128.63-86.25 86.848-122.44 124.11-128.54 132.38-20.574 27.934-32.613 60.07-36.422 96.336-1.6758 16.145-1.6758 339.59 0 355.82 3.8086 36.195 15.848 68.332 36.422 96.258 6.0977 8.2617 42.289 45.531 128.54 132.38 65.988 66.574 124.43 124.5 129.61 128.71 23.547 19.133 51.211 32.598 79.398 38.641 6.668 1.3789 103.66 2.0703 200.67 2.0703 97 0 194-0.69141 200.66-2.0703 28.195-6.043 55.848-19.508 79.32-38.641 5.2539-4.207 63.621-62.133 129.69-128.71 86.25-86.848 122.45-124.11 128.54-132.38 15.617-21.191 28.188-49.504 33.141-73.992 4.1953-21.121 4.5742-34.816 4.5742-200.18 0-165.43-0.37891-179.05-4.5742-200.25-4.9531-24.488-17.523-52.801-33.141-73.996-6.0977-8.2617-42.293-45.531-128.54-132.38-66.066-66.574-124.43-124.42-129.69-128.63-23.473-19.129-51.125-32.672-79.32-38.641-6.4414-1.3359-103.77-2.0078-201.05-2.0078z" fill-rule="evenodd"/>
</svg>
