<?xml version="1.0" encoding="UTF-8"?>
<svg width="1200pt" height="1200pt" version="1.1" viewBox="0 0 1200 1200" xmlns="http://www.w3.org/2000/svg">
 <path d="m1160.1 615.28c-56.391 97.5-138.71 179.63-237.19 236.68-95.062 54.938-205.64 86.859-322.97 86.859-117.28 0-227.86-31.922-322.92-86.859-98.766-57.188-181.31-139.74-237.74-237.61-5.25-9.0938-4.875-20.016 0-28.641h-0.046874c56.016-99.047 137.86-181.18 235.92-237.79 95.438-55.219 206.68-86.719 324.79-86.719 118.17 0 229.4 31.5 324.84 86.719 98.062 56.625 179.9 138.74 235.92 237.79 5.3906 9.5156 4.7812 20.812-0.60938 29.578zm-266.21 186.71c85.406-49.453 157.4-119.3 208.26-202.08-50.531-83.672-121.78-153.19-206.34-202.03-86.812-50.203-188.11-78.844-295.87-78.844-107.72 0-209.02 28.641-295.82 78.844-84.562 48.844-155.81 118.36-206.39 202.03 50.906 82.781 122.86 152.63 208.31 202.08 86.391 49.969 187.03 78.984 293.9 78.984 106.92 0 207.56-29.016 293.95-78.984zm-293.95-407.02c57.281 0 108.61 22.641 145.6 59.625l0.98438 1.0781 0.51562 0.51562c36.094 36.75 58.078 87.562 58.078 143.81 0 55.828-23.062 107.67-60.422 145.03l-1.0781 0.98438-0.51562 0.51562c-36.703 35.859-87.188 58.5-143.16 58.5-56.766 0-107.81-23.25-144.61-60l-0.09375-0.09375v0.09375c-37.359-37.359-60.422-89.203-60.422-145.03 0-57.094 22.594-108.52 59.578-145.4 36.984-36.984 88.312-59.625 145.55-59.625zm104.72 100.45c-26.344-26.344-63.328-42.562-104.72-42.562-41.344 0-78.328 16.219-104.67 42.562l-0.09375-0.046875v0.046875c-26.344 26.297-42.516 63.188-42.516 104.58 0 40.078 16.547 77.297 43.453 104.2h-0.09375c26.344 26.25 63 42.938 103.92 42.938 40.359 0 76.547-16.219 102.75-41.766l0.14062-0.14062 0.98438-1.0312c26.906-26.906 43.453-64.125 43.453-104.2 0-40.688-15.656-77.156-41.297-103.36l-0.23438-0.1875z" fill="#fff"/>
</svg>
