<?xml version="1.0" encoding="UTF-8"?>
<svg width="1200pt" height="1200pt" version="1.1" viewBox="0 0 1200 1200" xmlns="http://www.w3.org/2000/svg">
 <path d="m951.6 910.8-213.6-352.8v-234h22.801c16.801 0 30-13.199 30-30s-13.199-30-30-30h-321.6c-16.801 0-30 13.199-30 30s13.199 30 30 30h22.801v234l-213.6 352.8c-32.398 54-33.602 117.6-2.3984 172.8 31.199 54 86.398 87.602 148.8 87.602h410.4c62.398 0 118.8-32.398 148.8-87.602 31.199-55.203 30-120-2.3984-172.8zm-50.402 141.6c-19.199 34.801-55.199 56.398-96 56.398l-410.4 0.003906c-39.602 0-75.602-20.398-96-56.398-19.199-34.801-19.199-76.801 2.3984-110.4l218.4-358.8c2.3984-4.8008 4.8008-10.801 4.8008-15.602v-243.6h153.6v242.4c0 6 1.1992 10.801 4.8008 15.602l218.4 358.8c19.199 36 19.199 76.801 0 111.6z" fill="#29d200"/>
 <path d="m715.2 748.8h-230.4l-135.6 223.2c-21.602 34.801 3.6016 80.398 45.602 80.398h410.4c40.801 0 67.199-45.602 45.602-80.398z" fill="#29d200"/>
 <path d="m573.6 186c0 23.195-18.805 42-42 42-23.199 0-42-18.805-42-42s18.801-42 42-42c23.195 0 42 18.805 42 42" fill="#29d200"/>
 <path d="m610.8 74.398c0 24.523-19.879 44.402-44.402 44.402-24.52 0-44.398-19.879-44.398-44.402 0-24.52 19.879-44.398 44.398-44.398 24.523 0 44.402 19.879 44.402 44.398" fill="#29d200"/>
 <path d="m660 211.2c27.602 0 49.199-21.602 49.199-49.199 0-27.602-21.598-49.199-49.199-49.199s-49.199 21.602-49.199 49.199c0 27.602 21.598 49.199 49.199 49.199z" fill="#29d200"/>
</svg>
