<?xml version="1.0" encoding="UTF-8"?>
<svg width="1200pt" height="1200pt" version="1.1" viewBox="0 0 1200 1200" xmlns="http://www.w3.org/2000/svg">
 <path d="m450 262.5v153.86c0 65.625-15.262 130.35-44.625 189.04-54 107.96-140.96 281.93-197.14 394.27-17.438 34.875-15.602 76.312 4.9141 109.46 20.512 33.188 56.699 53.363 95.699 53.363h582.3c39 0 75.188-20.176 95.699-53.363 20.512-33.148 22.352-74.586 4.9141-109.46l-197.14-394.27c-29.363-58.688-44.625-123.41-44.625-189.04v-153.86c41.438 0 75-33.562 75-75v-75c0-41.438-33.562-75-75-75h-300c-41.438 0-75 33.562-75 75v75c0 41.438 33.562 75 75 75zm316.65 454.61c-0.9375-0.14844-1.875-0.375-2.7734-0.63672-73.273-19.688-115.05 2.25-149.51 26.512-41.062 28.949-109.39 64.914-212.66 37.461l-126.38 252.79c-5.8125 11.625-5.2109 25.426 1.6133 36.488 6.8633 11.062 18.898 17.773 31.914 17.773h582.3c13.012 0 25.051-6.7109 31.914-17.773 6.8242-11.062 7.4258-24.863 1.6133-36.488l-158.02-316.12zm-41.625-83.25c-32.887-67.762-50.023-142.12-50.023-217.5v-153.86h-150v153.86c0 77.25-18 153.45-52.539 222.56l-36.262 72.523c64.5 12.301 108.04-10.801 135-29.773 38.926-27.414 84.414-52.762 153.82-47.812zm-275.02-446.36h300v-75h-300z" fill="#2cd900" fill-rule="evenodd"/>
</svg>
