<?xml version="1.0" encoding="UTF-8"?>
<svg width="1200pt" height="1200pt" version="1.1" viewBox="0 0 1200 1200" xmlns="http://www.w3.org/2000/svg">
 <path d="m1034.4 874.8-222-382.8c-15.602-26.398-24-57.602-24-88.801v-301.2h46.801c20.398 0 36-16.801 36-36 0-20.398-16.801-36-36-36h-469.2c-20.398 0-36 16.801-36 36 0 20.398 16.801 36 36 36h46.801v301.2c0 31.199-8.3984 61.199-24 88.801l-223.2 382.8c-36 61.199-36 135.6 0 196.8 36 61.199 99.602 98.398 170.4 98.398h529.2c70.801 0 135.6-37.199 170.4-98.398 34.801-62.402 34.801-135.6-1.1992-196.8zm-549.6-471.6v-301.2h231.6v301.2c0 44.398 12 86.398 33.602 124.8l37.199 63.602h-374.4l37.199-63.602c22.801-37.199 34.801-80.398 34.801-124.8zm487.2 632.4c-22.801 39.602-62.398 62.398-108 62.398h-529.2c-45.602 0-85.199-22.801-108-62.398-22.801-39.602-22.801-85.199 0-124.8l142.8-246h458.4l144 246c22.801 38.398 22.801 85.199 0 124.8z" fill="#2cd900"/>
</svg>
