<?xml version="1.0" encoding="UTF-8"?>
<svg width="1200pt" height="1200pt" version="1.1" viewBox="0 0 1200 1200" xmlns="http://www.w3.org/2000/svg">
 <path d="m345.6 338.4c-2.3984 9.6016 0 16.801 7.1992 24 4.8008 7.1992 14.398 9.6016 21.602 9.6016h276c9.6016 0 16.801-4.8008 21.602-9.6016 4.8008-7.1992 7.1992-14.398 7.1992-24-9.6016-24-7.1992-55.199-43.199-67.199v-4.8008l-4.8047-26.398c-4.8008 0-9.6016 2.3984-14.398 2.3984h-223.2l-2.3984 24v4.8008c-36.004 12-36.004 45.602-45.602 67.199z" fill="#3b6af9"/>
 <path d="m1032 14.398c-9.6016-7.1992-19.199-9.6016-31.199-7.1992l-285.6 72c-12 2.3984-21.602 12-24 24h-40.801c-7.1992-9.6016-19.199-19.199-33.602-19.199h-328.8c-26.398 0-50.398 16.801-60 43.199l-72 228c-4.8008 19.199-4.8008 38.398 4.8008 55.199 16.801 31.199 19.199 55.199 43.199 60h2.3984c7.1992 0 14.398-2.3984 19.199-9.6016 2.3984-2.3984-4.8008 12 103.2-256.8h285.6c14.398 0 26.398-7.1992 33.602-19.199h40.801c2.3984 12 12 21.602 24 24 297.6 76.801 288 74.398 295.2 74.398s16.801-2.3984 24-7.1992c9.6016-7.1992 14.398-16.801 14.398-28.801v-204c0-12-7.1992-21.598-14.398-28.801z" fill="#3b6af9"/>
 <path d="m645.6 410.4h-264c-100.8 48-165.6 151.2-165.6 266.4v52.801h321.6c9.6016 0 19.199 7.1992 19.199 19.199v302.4c0 9.6016-7.1992 19.199-19.199 19.199l-321.6 0.003907v31.199c0 52.801 43.199 96 96 96h403.2c52.801 0 96-43.199 96-96v-427.2c0-84-33.602-158.4-93.602-216-21.598-19.199-45.598-36-71.996-48z" fill="#3b6af9"/>
 <path d="m216 763.2h302.4v266.4h-302.4z" fill="#3b6af9"/>
</svg>
