<?xml version="1.0" encoding="UTF-8"?>
<svg width="1200pt" height="1200pt" version="1.1" viewBox="0 0 1200 1200" xmlns="http://www.w3.org/2000/svg">
 <path d="m1093.5 202.54h-978.79c-37.719 0-68.285 30.574-68.285 68.285v87.367l1115.4 3.6211-0.003906-90.992c-0.007813-37.711-30.586-68.281-68.297-68.281z" fill="#ff814a"/>
 <path d="m455.32 671.58c-20.086 0-36.422 16.344-36.422 36.434 0 20.09 16.34 36.438 36.426 36.426 20.078-0.015625 36.41-16.344 36.41-36.426 0-20.094-16.348-36.426-36.414-36.434z" fill="#ff814a"/>
 <path d="m46.438 494.79v371.65c0 37.719 30.57 68.289 68.285 68.289h978.8c37.703 0 68.285-30.574 68.285-68.289v-368.04zm753.96 280.94-28.871-28.863-43.777 43.766-37.992-37.98-39.195 39.195-44.156-44.148-43.371 0.003906c-16.18 43.812-58.359 75.133-107.72 75.129-63.305 0.003906-114.83-51.508-114.82-114.82-0.003906-63.32 51.5-114.82 114.81-114.82 49.734-0.007812 92.16 31.789 108.1 76.105h264.98v0.10547l0.09375-0.09375 39.25 39.25z" fill="#ff814a"/>
</svg>
