<?xml version="1.0" encoding="UTF-8"?>
<svg width="1200pt" height="1200pt" version="1.1" viewBox="0 0 1200 1200" xmlns="http://www.w3.org/2000/svg">
 <path d="m292.02 545.14c9.2578 16.262 14.793 34.816 14.793 54.863s-5.5352 38.602-14.793 54.863h187.52c-9.2578-16.262-14.793-34.816-14.793-54.863s5.5352-38.602 14.793-54.863z" fill="#fff"/>
 <path d="m171.57 488.43c-61.609 0-111.57 49.965-111.57 111.57s49.965 111.57 111.57 111.57 111.57-49.965 111.57-111.57-49.965-111.57-111.57-111.57z" fill="#fff"/>
 <path d="m600 488.43c-61.609 0-111.57 49.965-111.57 111.57s49.965 111.57 111.57 111.57 111.57-49.965 111.57-111.57-49.965-111.57-111.57-111.57z" fill="#fff"/>
 <path d="m720.44 545.14c9.2578 16.262 14.793 34.816 14.793 54.863s-5.5352 38.602-14.793 54.863h187.52c-9.2578-16.262-14.793-34.816-14.793-54.863s5.5352-38.602 14.793-54.863z" fill="#fff"/>
 <path d="m1028.4 488.43c-61.609 0-111.57 49.965-111.57 111.57s49.965 111.57 111.57 111.57 111.57-49.965 111.57-111.57-49.965-111.57-111.57-111.57z" fill="#fff"/>
</svg>
