<?xml version="1.0" encoding="UTF-8"?>
<svg width="1200pt" height="1200pt" version="1.1" viewBox="0 0 1200 1200" xmlns="http://www.w3.org/2000/svg">
 <path d="m257.14 610.39-44.66 199.39 157.09-52.949z" fill="#fff"/>
 <path d="m395.66 790.8-193.5 65.176-50.402 225.07h287.1l109.2-91.762z" fill="#fff"/>
 <path d="m501.82 1081.1h522.64l-259.01-221.62z" fill="#fff"/>
 <path d="m1048.2 1048.1-80.324-358.88-170.96 143.78z" fill="#fff"/>
 <path d="m693.6 647.74 187.43-63.148h-144.56c-14.816 22.797-29.441 44.211-42.863 63.148z" fill="#fff"/>
 <path d="m549.19 696.38c-19.648-26.211-48.711-66.301-78.301-111.75h-182.47l121.73 158.59z" fill="#fff"/>
 <path d="m635.51 725.96-31.875 40.5-28.426-36.188-139.01 46.801 142.84 186.04 378.9-318.45-9-40.125-296.77 99.898c-7.9102 10.426-13.797 17.961-16.648 21.523z" fill="#fff"/>
 <path d="m809.85 325.12c0-113.81-92.289-206.18-206.18-206.18-113.81 0-206.1 92.363-206.1 206.18s206.1 375.86 206.1 375.86 206.18-262.05 206.18-375.86zm-310.35 4.0117c0-57.562 46.613-104.21 104.14-104.21 57.562 0 104.21 46.648 104.21 104.21 0 57.488-46.648 104.14-104.21 104.14-57.523 0.039062-104.14-46.609-104.14-104.14z" fill="#fff"/>
</svg>
