<?xml version="1.0" encoding="UTF-8"?>
<svg width="1200pt" height="1200pt" version="1.1" viewBox="0 0 1200 1200" xmlns="http://www.w3.org/2000/svg">
 <path d="m755.62 757.5-86.25-69.375 125.62-251.25c3.75-7.5 5.625-15 7.5-22.5 5.625-31.875-11.25-63.75-41.25-78.75-7.5-3.75-13.125-5.625-20.625-7.5-3.75 0-5.625-1.875-9.375-1.875l-150-7.5c-11.25 0-22.5 3.75-31.875 11.25l-127.5 105c-20.625 16.875-22.5 45-5.625 65.625 7.5 9.375 16.875 13.125 26.25 16.875 13.125 3.75 28.125 0 39.375-9.375l112.5-93.75 43.125 1.875-105 208.12c-9.375 18.75-9.375 37.5-3.75 56.25 5.625 16.875 16.875 31.875 31.875 41.25l118.12 95.625v200.62c0 26.25 20.625 46.875 46.875 46.875s46.875-20.625 46.875-46.875v-225c1.875-13.125-5.625-26.25-16.875-35.625z"/>
 <path d="m511.88 725.62-30 75-204.38 56.25c-24.375 7.5-39.375 31.875-31.875 58.125 5.625 20.625 24.375 33.75 45 33.75 3.75 0 7.5 0 13.125-1.875l226.88-61.875c15-3.75 26.25-15 31.875-28.125l28.125-67.5-46.875-37.5c-15-7.5-24.375-16.875-31.875-26.25z"/>
 <path d="m967.5 502.5-110.62-15-26.25-37.5v1.875l-46.875 91.875 9.375 13.125c7.5 9.375 18.75 16.875 31.875 18.75l131.25 18.75h7.5c22.5 0 43.125-16.875 46.875-39.375 0-24.375-16.875-48.75-43.125-52.5z"/>
 <path d="m905.62 228.75c0 50.742-41.133 91.875-91.875 91.875s-91.875-41.133-91.875-91.875 41.133-91.875 91.875-91.875 91.875 41.133 91.875 91.875"/>
 <path d="m333.75 240c-11.25 0-18.75 7.5-18.75 18.75s7.5 18.75 18.75 18.75h161.25c11.25 0 18.75-7.5 18.75-18.75s-7.5-18.75-18.75-18.75z"/>
 <path d="m390 378.75c0-11.25-7.5-18.75-18.75-18.75h-161.25c-11.25 0-18.75 7.5-18.75 18.75s7.5 18.75 18.75 18.75h161.25c11.25 0 18.75-7.5 18.75-18.75z"/>
 <path d="m247.5 586.88c0 11.25 7.5 18.75 18.75 18.75h161.25c11.25 0 18.75-7.5 18.75-18.75s-7.5-18.75-18.75-18.75h-161.25c-9.375 0-18.75 9.375-18.75 18.75z"/>
</svg>
