<?xml version="1.0" encoding="UTF-8"?>
<svg width="1200pt" height="1200pt" version="1.1" viewBox="0 0 1200 1200" xmlns="http://www.w3.org/2000/svg">
 <defs>
  <clipPath id="x">
   <path d="m455 129h289v261h-289z"/>
  </clipPath>
  <clipPath id="w">
   <path d="m600 65.629 534.37 534.37-534.37 534.37-534.37-534.37z"/>
  </clipPath>
  <clipPath id="l">
   <path d="m499 174h201v173h-201z"/>
  </clipPath>
  <clipPath id="g">
   <path d="m600 65.629 534.37 534.37-534.37 534.37-534.37-534.37z"/>
  </clipPath>
  <clipPath id="f">
   <path d="m353 638h74v65h-74z"/>
  </clipPath>
  <clipPath id="e">
   <path d="m600 65.629 534.37 534.37-534.37 534.37-534.37-534.37z"/>
  </clipPath>
  <clipPath id="d">
   <path d="m358 412h120v220h-120z"/>
  </clipPath>
  <clipPath id="c">
   <path d="m600 65.629 534.37 534.37-534.37 534.37-534.37-534.37z"/>
  </clipPath>
  <clipPath id="b">
   <path d="m732 409h130v289h-130z"/>
  </clipPath>
  <clipPath id="a">
   <path d="m600 65.629 534.37 534.37-534.37 534.37-534.37-534.37z"/>
  </clipPath>
  <clipPath id="v">
   <path d="m436 909h142v76h-142z"/>
  </clipPath>
  <clipPath id="u">
   <path d="m600 65.629 534.37 534.37-534.37 534.37-534.37-534.37z"/>
  </clipPath>
  <clipPath id="t">
   <path d="m627 912h142v75h-142z"/>
  </clipPath>
  <clipPath id="s">
   <path d="m600 65.629 534.37 534.37-534.37 534.37-534.37-534.37z"/>
  </clipPath>
  <clipPath id="r">
   <path d="m387 302h107v180h-107z"/>
  </clipPath>
  <clipPath id="q">
   <path d="m600 65.629 534.37 534.37-534.37 534.37-534.37-534.37z"/>
  </clipPath>
  <clipPath id="p">
   <path d="m715 304h101v170h-101z"/>
  </clipPath>
  <clipPath id="o">
   <path d="m600 65.629 534.37 534.37-534.37 534.37-534.37-534.37z"/>
  </clipPath>
  <clipPath id="n">
   <path d="m476 386h257v522h-257z"/>
  </clipPath>
  <clipPath id="m">
   <path d="m600 65.629 534.37 534.37-534.37 534.37-534.37-534.37z"/>
  </clipPath>
  <clipPath id="k">
   <path d="m528 494h153v132h-153z"/>
  </clipPath>
  <clipPath id="j">
   <path d="m600 65.629 534.37 534.37-534.37 534.37-534.37-534.37z"/>
  </clipPath>
  <clipPath id="i">
   <path d="m581 541h38v38h-38z"/>
  </clipPath>
  <clipPath id="h">
   <path d="m600 65.629 534.37 534.37-534.37 534.37-534.37-534.37z"/>
  </clipPath>
 </defs>
 <g clip-path="url(#x)">
  <g clip-path="url(#w)">
   <path d="m457.64 292.48c0.16797 0.5 0.25 1.0859 0.25 1.5859 6.0938 31.312 22.879 60.785 49.348 83.078 75.812 17.535 139.52 16.781 194.46-2.0859 9.1836-8.5156 17.117-18.453 23.547-29.391 32.898-55.773 21.039-126.08-24.379-171.5-8.7656-8.7656-18.785-16.781-30.059-23.379-33.648-19.789-72.473-25.715-109.8-16.949-36.988 8.9336-67.883 31.477-86.836 63.625-17.285 29.309-22.375 62.789-16.449 94.602-0.085937 0.25-0.16797 0.33203-0.085937 0.41406zm44.586-78.316c30.141-51.184 98.441-67.215 152.21-35.484 53.688 31.645 72.977 99.191 42.75 150.46-3.9258 6.4297-8.3477 12.523-13.359 17.867-0.75 0.75-1.668 1.3359-2.6719 1.668-44.086 13.691-94.766 13.945-155.22 0.91797-1.0859-0.25-2.1719-0.83594-2.9219-1.5859l-1.9219-1.9219c-35.984-35.984-43.75-89.836-18.867-131.92z"/>
  </g>
 </g>
 <g clip-path="url(#l)">
  <g clip-path="url(#g)">
   <path d="m529.7 337.49 0.41797 0.41797c56.859 12.105 104.62 11.941 145.87-0.41797 4.0078-4.5078 7.5156-9.3516 10.605-14.613 22.293-37.992 14.109-86.082-17.199-117.39-6.1797-6.1797-13.277-11.773-21.207-16.363-47.926-28.223-108.79-14.277-135.51 31.145-21.965 37.488-14.949 85.25 17.027 117.23z"/>
  </g>
 </g>
 <g clip-path="url(#f)">
  <g clip-path="url(#e)">
   <path d="m426.25 644-69.801-5.6758c-1.0859 7.2656-1.9219 14.613-2.5898 22.293-1.5039 16.363 6.7617 32.312 20.371 38.574 10.02 4.5078 21.457 4.4258 30.727-0.16797 6.5117-3.3398 14.777-10.27 17.867-24.883 0.003907-1.332 1.0859-13.105 3.4258-30.141z"/>
  </g>
 </g>
 <g clip-path="url(#d)">
  <g clip-path="url(#c)">
   <path d="m466.32 500.72c2.3359-3.8398 3.9258-7.0977 5.0078-10.855 4.4258-15.445 12.355-52.102-1.9219-77.734-58.699 44.504-95.938 116.48-111.21 214.08l69.719 5.5938c6.0117-39.406 17.621-96.934 38.41-131.09z"/>
  </g>
 </g>
 <g clip-path="url(#b)">
  <g clip-path="url(#a)">
   <path d="m740.27 409.13c-13.527 25.551-4.9258 61.535-0.33203 76.984 0.082032 0.082031 0.16797 0.33203 0.16797 0.5 1.2539 3.7578 2.9219 7.0977 5.3438 11.02 34.398 53.605 46.926 167.99 47.508 172.75 3.3398 13.859 11.773 20.625 18.367 23.711 9.3516 4.5078 20.789 4.2578 30.727-0.5 13.359-6.5117 21.375-22.543 19.371-39.074-13.945-114.81-54.691-197.47-121.15-245.39z"/>
  </g>
 </g>
 <g clip-path="url(#v)">
  <g clip-path="url(#u)">
   <path d="m575.7 934.07v-0.16797c-0.33203-6.3438-2.9219-12.441-7.5156-17.031l-0.75-0.75c-5.0078-4.6758-11.688-7.1797-18.535-6.8477l-77.734 2.9219-0.082031 0.082032c-0.16797 0-0.33203 0-0.41797 0.082031-9.5195 0.5-18.117 4.4258-24.547 11.523-6.5117 7.0117-9.8516 16.199-9.4336 25.801 0.33203 9.6836 4.3398 18.535 11.438 24.965 7.0977 6.5977 16.199 10.02 25.801 9.6016l90.09-3.5898c3.5078-0.16797 6.5977-1.5859 9.0156-4.0078l0.33203-0.33203c2.5039-2.6719 3.8398-6.1797 3.6719-9.8516z"/>
  </g>
 </g>
 <g clip-path="url(#t)">
  <g clip-path="url(#s)">
   <path d="m768.41 952.43c-0.41797-10.605-4.7578-20.457-12.273-27.973l-1.168-1.168c-8.1836-7.6797-18.953-11.605-30.141-11.105l-84.582 3.2578c-3.3398 0.16797-6.3438 1.5039-8.6836 3.8398l-0.33203 0.33203c-2.3359 2.5039-3.5898 5.7617-3.4219 9.2695l1.418 33.648c0.25 6.5977 3.0039 12.859 8.0977 17.449 5.0078 4.6758 11.355 7.0117 18.117 6.7617l84.496-3.3398c16.367-0.66406 29.141-14.605 28.473-30.973z"/>
  </g>
 </g>
 <g clip-path="url(#r)">
  <g clip-path="url(#q)">
   <path d="m493.71 381.66c-1.5859-1.418-2.9219-2.7539-4.4258-4.2578-21.457-21.457-35.82-47.676-42.25-75.312l-15.695 4.8438c-27.469 8.4336-45.422 34.398-44.004 63.039l5.7617 111.97c19.453-34.148 44.418-61.953 74.312-83.496 8.7656-6.2656 17.531-11.859 26.301-16.785z"/>
  </g>
 </g>
 <g clip-path="url(#p)">
  <g clip-path="url(#o)">
   <path d="m715.14 378.82c8.2656 4.4258 16.949 9.7695 26.719 16.531 29.223 19.871 53.77 45.922 73.645 77.652l-3.9258-119.98c-0.83594-24.715-20.039-44.922-44.672-47.008l-13.609-1.2539c-3.1719 16.199-8.9336 32.145-17.785 47.008-5.5938 9.9375-12.523 19.039-20.371 27.055z"/>
  </g>
 </g>
 <g clip-path="url(#n)">
  <g clip-path="url(#m)">
   <path d="m633.57 778.85-0.41797 125.66c2.0859-0.75 4.2578-1.0859 6.5117-1.168l84.496-3.3398c2.9219-0.082031 5.5117 0 8.1836 0.5l-4.1758-411.13c-5.1758-17.199-14.445-57.527 2.0039-87.336-9.6016-6.2617-17.867-11.188-25.969-15.113-56.695 19.289-121.73 20.039-198.89 2.3359-8.6836 4.3398-17.367 9.6836-26.133 15.613 17.449 29.809 8.6016 71.055 3.6719 88.172-1.0859 4.4258-3.0039 8.1836-5.4258 12.273l-0.58594 394.52 71.555-2.7539c10.102-0.41797 19.703 3.0039 27.137 9.9375l-0.41797-128.33c0-7.8477 3.1719-15.363 8.8516-21.039 5.7617-5.5938 13.277-8.4336 21.207-8.3477 15.285 0.58203 28.645 14.273 28.395 29.555zm-86.336-342.67c-1.5039-1.5039-2.0859-3.5898-1.5859-5.7617 0.75-3.2578 4.0898-5.2617 7.3477-4.5078 33.398 7.6797 67.297 7.6797 100.7 0 3.3398-0.83594 6.5977 1.2539 7.3477 4.5078 0.83594 3.3398-1.2539 6.5977-4.5078 7.3477-35.152 8.0977-71.055 8.0977-106.21 0-1.3359-0.33203-2.3398-0.83203-3.0898-1.5859zm119.9 201.73h-125.24c-6.9297-0.082031-13.441-2.9219-18.035-7.5156-4.6758-4.6758-7.4297-11.105-7.5977-18.117l0.082032-104.45c0-14.195 11.438-25.633 25.551-25.551h125.24c13.691 0 25.551 11.855 25.551 25.551l0.082031 104.45c-0.082031 6.7617-2.6719 13.191-7.5156 18.035-4.8398 4.8438-11.352 7.5156-18.117 7.5977z"/>
  </g>
 </g>
 <g clip-path="url(#k)">
  <g clip-path="url(#j)">
   <path d="m680.41 507.9c0-3.5078-1.418-6.9297-3.8398-9.3516-2.5039-2.5039-5.9297-3.9258-9.5195-4.0078h-125.24c-7.2656 0.082031-13.359 6.1797-13.359 13.359v104.54c0 7.3477 6.0117 13.359 13.359 13.359h125.24c3.6719 0 6.9297-1.418 9.5195-4.0078 2.5039-2.5039 3.9258-5.7617 3.8398-9.3516zm-80.824 82.996c-8.5156 0-16.199-3.5078-21.793-9.1016s-8.9336-13.277-9.1016-21.793c0.082031-16.949 13.859-30.727 30.895-30.895 16.949 0.082031 30.727 13.859 30.895 30.895 0 17.203-13.777 30.977-30.895 30.895z"/>
  </g>
 </g>
 <g clip-path="url(#i)">
  <g clip-path="url(#h)">
   <path d="m612.86 546.9c-3.3398-3.3398-8.0156-5.5117-13.109-5.4258-10.352 0-18.703 8.3477-18.621 18.621 0 10.352 8.3477 18.703 18.621 18.621 10.27 0.082031 18.621-8.2656 18.621-18.621-0.085938-5.0977-2.1719-9.8555-5.5117-13.195z"/>
  </g>
 </g>
</svg>
