<?xml version="1.0" encoding="UTF-8"?>
<svg width="1200pt" height="1200pt" version="1.1" viewBox="0 0 1200 1200" xmlns="http://www.w3.org/2000/svg">
 <path d="m600 658.23c82.164 0 148.97-66.852 148.97-149 0-82.164-66.805-148.97-148.97-148.97s-148.97 66.805-148.97 148.97c0 82.141 66.805 149 148.97 149zm0-260.73c61.609 0 111.73 50.125 111.73 111.73 0 61.609-50.121 111.76-111.73 111.76s-111.73-50.16-111.73-111.76c0-61.594 50.121-111.73 111.73-111.73z"/>
 <path d="m1069 1102.8h-42.734v-77.688c0-6.5039-3.3711-12.504-8.9414-15.887l-187.87-114.42c10.031-6 19.848-12.215 29.375-18.938 1.9336-0.98437 3.6367-2.2578 5.1367-3.8516 112.04-81.758 185.29-213.71 185.29-362.75 0-149.4-73.57-281.61-186.11-363.32-1.0078-0.94922-2.0625-1.7148-3.2383-2.3984-73.461-52.371-163-83.5-259.88-83.5-96.805 0-186.35 31.094-259.81 83.438-1.2734 0.73047-2.3984 1.5586-3.4922 2.5781-112.41 81.758-185.91 213.89-185.91 363.21 0 149.28 73.5 281.45 185.91 363.21 1.0547 1.0195 2.1836 1.8477 3.457 2.5781 9.8516 7.0195 20.039 13.535 30.434 19.754l-187.87 114.42c-5.5664 3.3828-8.9414 9.3828-8.9414 15.887v77.688h-42.742c-10.285 0-18.625 8.3281-18.625 18.625-0.003906 10.297 8.3359 18.602 18.621 18.602h122.68c10.285 0 18.625-8.3281 18.625-18.625s-8.3281-18.625-18.625-18.625h-42.695v-67.211l197.7-120.42c52.801 24.984 111.11 39.863 172.68 42.406v86.195h-42.742c-10.285 0-18.613 8.3281-18.613 18.625s8.3164 18.625 18.613 18.625h122.72c10.285 0 18.613-8.3281 18.613-18.625s-8.3164-18.625-18.613-18.625h-42.742v-86.195c61.57-2.543 119.87-17.426 172.68-42.406l197.7 120.42v67.211h-42.695c-10.285 0-18.625 8.3281-18.625 18.625s8.3281 18.625 18.613 18.625h122.68c10.285 0 18.625-8.3281 18.625-18.625s-8.3398-18.621-18.625-18.621zm-468.97-181.5c-70.078 0-136.05-17.688-193.92-48.707 124.54-10.621 263.3-10.621 387.84 0-57.863 31.016-123.84 48.707-193.92 48.707zm368.02-420.87c0.625-32.953 13.273-63.504 33.023-84.012 6.9375 29.891 10.945 60.875 10.945 92.844 0 27.926-2.832 55.176-8.1836 81.539-23.391-23.555-36.48-55.09-35.785-90.371zm-174.09-354.44c-124.54 10.621-263.3 10.621-387.84 0 57.863-31.035 123.84-48.699 193.92-48.699s136.05 17.664 193.92 48.699zm-561.06 354.44c0.69531 35.605-12.742 67.414-36.551 91.031-5.4258-26.555-8.293-54.047-8.293-82.199 0-32.195 4.0781-63.348 11.102-93.434 20.137 20.477 33.129 51.289 33.742 84.602zm-26.113 131.65c41.281-31.273 64.414-78.77 63.359-132.37-0.98438-51.109-23.688-97.223-59.617-123.5 27.348-79.836 78.516-148.46 145.04-197.77 76.707 8.4961 158.78 12.902 244.47 12.902s167.76-4.4023 244.46-12.91c66.672 49.43 117.91 118.23 145.22 198.28-35.531 26.375-57.926 72.227-58.906 123-1.0547 53.27 21.816 100.56 62.664 131.87-26.293 84.48-79.43 157.03-148.97 208.57-153.62-16.98-335.3-16.98-488.93 0-69.406-51.41-122.43-123.79-148.8-208.06z"/>
</svg>
