<?xml version="1.0" encoding="UTF-8"?>
<svg width="1200pt" height="1200pt" version="1.1" viewBox="0 0 1200 1200" xmlns="http://www.w3.org/2000/svg">
 <path d="m548.4 379.2c2.3984 7.1992 4.8008 14.398 8.3984 21.602 2.3984 4.8008 10.801 3.6016 9.6016-2.3984-6-111.6 54-218.4 154.8-271.2 22.801-12 33.602-38.398 25.199-61.199-10.801-31.199-46.801-43.199-74.398-26.398-114 67.195-168 208.79-123.6 339.59z" fill="#b918e2"/>
 <path d="m445.2 434.4c6 4.8008 12 9.6016 18 14.398 4.8008 3.6016 10.801-2.3984 7.1992-7.1992-61.199-93.602-62.398-216-2.3984-312 13.199-21.602 9.6016-49.199-9.6016-66-24-21.602-62.398-14.398-78 14.398-63.598 116.4-39.598 265.2 64.801 356.4z" fill="#b918e2"/>
 <path d="m382.8 534c7.1992 1.1992 14.398 2.3984 22.801 3.6016 6 1.1992 8.3984-7.1992 2.3984-9.6016-99.602-50.398-162-156-158.4-270 1.1992-25.199-16.801-48-40.801-52.801-32.398-6-61.199 19.199-60 51.602 2.3984 133.2 98.398 250.8 234 277.2z" fill="#b918e2"/>
 <path d="m379.2 651.6c7.1992-2.3984 14.398-4.8008 21.602-8.3984 4.8008-2.3984 3.6016-10.801-2.3984-9.6016-111.6 6-218.4-54-271.2-154.8-12-22.801-38.398-33.602-61.199-25.199-31.199 10.801-43.199 46.801-26.398 74.398 67.195 114 208.79 168 339.59 123.6z" fill="#b918e2"/>
 <path d="m434.4 754.8c4.8008-6 9.6016-12 14.398-18 3.6016-4.8008-2.3984-10.801-7.1992-7.1992-93.602 61.199-216 62.398-312 2.3984-21.602-13.199-49.199-9.6016-66 9.6016-21.602 24-14.398 62.398 14.398 78 116.4 63.598 265.2 39.598 356.4-64.801z" fill="#b918e2"/>
 <path d="m534 817.2c1.1992-7.1992 2.3984-14.398 3.6016-22.801 1.1992-6-7.1992-8.3984-9.6016-2.3984-50.398 99.602-156 162-270 158.4-25.199-1.1992-48 16.801-52.801 40.801-6 32.398 19.199 61.199 51.602 60 133.2-2.3984 250.8-98.398 277.2-234z" fill="#b918e2"/>
 <path d="m651.6 820.8c-2.3984-7.1992-4.8008-14.398-8.3984-21.602-2.3984-4.8008-10.801-3.6016-9.6016 2.3984 6 111.6-54 218.4-154.8 271.2-22.801 12-33.602 38.398-25.199 61.199 10.801 31.199 46.801 43.199 74.398 26.398 114-67.195 168-208.79 123.6-339.59z" fill="#b918e2"/>
 <path d="m754.8 765.6c-6-4.8008-12-9.6016-18-14.398-4.8008-3.6016-10.801 2.3984-7.1992 7.1992 61.199 93.602 62.398 216 2.3984 312-13.199 21.602-9.6016 49.199 9.6016 66 24 21.602 62.398 14.398 78-14.398 63.598-116.4 39.598-265.2-64.801-356.4z" fill="#b918e2"/>
 <path d="m817.2 666c-7.1992-1.1992-14.398-2.3984-22.801-3.6016-6-1.1992-8.3984 7.1992-2.3984 9.6016 99.602 50.398 162 156 158.4 270-1.1992 25.199 16.801 48 40.801 52.801 32.398 6 61.199-19.199 60-51.602-2.3984-133.2-98.398-250.8-234-277.2z" fill="#b918e2"/>
 <path d="m820.8 548.4c-7.1992 2.3984-14.398 4.8008-21.602 8.3984-4.8008 2.3984-3.6016 10.801 2.3984 9.6016 111.6-6 218.4 54 271.2 154.8 12 22.801 38.398 33.602 61.199 25.199 31.199-10.801 43.199-46.801 26.398-74.398-67.195-114-208.79-168-339.59-123.6z" fill="#b918e2"/>
 <path d="m765.6 445.2c-4.8008 6-9.6016 12-14.398 18-3.6016 4.8008 2.3984 10.801 7.1992 7.1992 93.602-61.199 216-62.398 312-2.3984 21.602 13.199 49.199 9.6016 66-9.6016 21.602-24 14.398-62.398-14.398-78-116.4-63.598-265.2-39.598-356.4 64.801z" fill="#b918e2"/>
 <path d="m666 382.8c-1.1992 7.1992-2.3984 14.398-3.6016 22.801-1.1992 6 7.1992 8.3984 9.6016 2.3984 50.398-99.602 156-162 270-158.4 25.199 1.1992 48-16.801 52.801-40.801 6-32.398-19.199-61.199-51.602-60-133.2 2.3984-250.8 98.398-277.2 234z" fill="#b918e2"/>
</svg>
