<?xml version="1.0" encoding="UTF-8"?>
<svg width="1200pt" height="1200pt" version="1.1" viewBox="0 0 1200 1200" xmlns="http://www.w3.org/2000/svg">
 <path d="m948.09 531.38-512.62 661.5c-3.5781 4.5273-9.043 7.1562-14.812 7.125-3.0039 0.074219-5.9805-0.63672-8.625-2.0625-3.9062-2.0078-6.9844-5.3203-8.6992-9.3633-1.7109-4.043-1.9531-8.5586-0.67578-12.762l138.19-456.75h-274.12c-3.4609-0.011719-6.8555-0.98047-9.8008-2.8008-2.9453-1.8203-5.3281-4.418-6.8867-7.5117-1.4219-2.9805-2.0352-6.2852-1.7695-9.5781 0.26172-3.293 1.3906-6.457 3.2695-9.1719l497.25-682.31c3.3008-4.5664 8.4805-7.4062 14.105-7.7344 5.6289-0.32812 11.102 1.8945 14.91 6.0469s5.5469 9.7969 4.7344 15.375l-65.812 479.81h216.56c3.5156-0.007812 6.9609 0.97266 9.9414 2.832 2.9844 1.8555 5.3867 4.5117 6.9336 7.668 1.5273 3.1484 2.1445 6.6602 1.7773 10.137-0.36328 3.4805-1.6953 6.7891-3.8398 9.5508z" fill="#f1df14"/>
</svg>
