<?xml version="1.0" encoding="UTF-8"?>
<svg width="1200pt" height="1200pt" version="1.1" viewBox="0 0 1200 1200" xmlns="http://www.w3.org/2000/svg">
 <path d="m600.1 78.75c288.66 0 523.08 234.42 523.08 523.08 0 288.79-234.42 523.13-523.08 523.13-288.74 0-523.18-234.32-523.18-523.13 0-288.66 234.42-523.08 523.18-523.08zm0 75c-247.4 0-448.18 200.81-448.18 448.08 0 247.4 200.76 448.13 448.18 448.13 247.31 0 448.08-200.72 448.08-448.13 0-247.26-200.76-448.08-448.08-448.08zm-142.78 573.19 115.31 86.156c16.594 12.422 20.016 35.906 7.6406 52.547-12.328 16.547-35.906 19.922-52.5 7.5469l-212.72-158.9c-9.4688-7.0312-15-18.188-15-30 0-11.859 5.625-22.969 15.141-30.047l213.1-158.86c16.5-12.328 40.078-8.9531 52.406 7.6875 12.375 16.547 8.9531 40.031-7.6406 52.453 0 0-78.234 58.266-129.37 96.422h118.92c144.89 0 262.45-117.47 262.45-262.45 0-8.625 3.375-16.969 9.5625-23.062 6.1875-6.0469 14.484-9.5156 23.156-9.4219h9.9844c17.906 0.046875 32.297 14.578 32.297 32.484 0 186.37-151.08 337.45-337.45 337.45z" fill="#fff" fill-rule="evenodd"/>
</svg>
