<?xml version="1.0" encoding="UTF-8"?>
<svg width="1200pt" height="1200pt" version="1.1" viewBox="0 0 1200 1200" xmlns="http://www.w3.org/2000/svg">
 <path d="m622.72 37.5c-122.76 136.94-154.62 280.84-96.629 437.78h190.26c56.828-154.06 25.961-297.94-93.629-437.78zm0.84766 245.71h-0.003906c-18.414-0.007813-35.781-8.5781-46.984-23.191-11.207-14.613-14.98-33.609-10.207-51.398 4.7695-17.785 17.543-32.34 34.559-39.387 17.016-7.043 36.34-5.7695 52.285 3.4414 15.945 9.2109 26.703 25.316 29.102 43.574 2.4023 18.258-3.8281 36.594-16.852 49.617-11.086 11.148-26.176 17.398-41.902 17.344zm-21.328-80.59h-0.003906c5.6602-5.6719 13.34-8.8555 21.352-8.8555 8.0078 0 15.691 3.1836 21.348 8.8555 5.6719 5.6602 8.8594 13.348 8.8633 21.359 0 8.0156-3.1836 15.703-8.8555 21.367-5.668 5.6641-13.355 8.8438-21.371 8.8359-8.0117 0-15.691-3.1836-21.355-8.8516-5.6641-5.668-8.8398-13.352-8.8359-21.363s3.1953-15.691 8.8633-21.348zm102.46 301.7-166.92-0.003906c3.6523 8.4375 7.5977 16.938 11.762 25.449l144.38-2.1289c3.7969-7.7891 7.3906-15.566 10.781-23.324zm65.031-128.32 87.559 87.992h-0.003906c1.5781 1.457 2.2656 3.6367 1.8125 5.7344l-18.816 111.73c-0.39453 2.3438-2.0234 4.2969-4.2617 5.1016-2.2344 0.80859-4.7344 0.34375-6.5352-1.2109l-93.543-80.535c17.191-41.156 28.559-84.512 33.773-128.81zm-262.2 131.32-94.797 81.629c-1.793 1.5625-4.2891 2.0312-6.5234 1.2266-2.2383-0.80078-3.8672-2.75-4.2578-5.0938l-18.848-111.75c-0.45312-2.1016 0.25-4.2852 1.8398-5.7305l87.871-88.309c5.7461 44.047 17.426 87.117 34.719 128.03zm29.324 99.75v93.074c-0.046875 3.8828 1.4609 7.6211 4.1875 10.383 2.7266 2.7656 6.4492 4.3203 10.332 4.3203 3.8789 0 7.6016-1.5547 10.328-4.3203 2.7266-2.7617 4.2344-6.5 4.1875-10.383v-93.074c0-5.1836-2.7695-9.9766-7.2578-12.57-4.4922-2.5898-10.023-2.5898-14.516 0-4.4922 2.5938-7.2578 7.3867-7.2578 12.57zm68.035 0v179.61c0 5.1875 2.7695 9.9805 7.2578 12.574 4.4922 2.5938 10.027 2.5938 14.52 0 4.4922-2.5938 7.2578-7.3867 7.2578-12.574v-179.61c0.050781-3.8789-1.457-7.6172-4.1836-10.383-2.7305-2.7617-6.4492-4.3164-10.332-4.3164-3.8789 0-7.5977 1.5547-10.328 4.3164-2.7266 2.7656-4.2344 6.5039-4.1836 10.383zm69.816-1.7891v93.074h0.003907c0.0625 5.1406 2.8438 9.8672 7.3086 12.418 4.4688 2.5547 9.9492 2.5547 14.414 0 4.4648-2.5508 7.2461-7.2773 7.3125-12.418v-93.074c-0.066406-5.1445-2.8477-9.8672-7.3125-12.422-4.4648-2.5508-9.9453-2.5508-14.414 0-4.4648 2.5547-7.2461 7.2773-7.3086 12.422zm136.06 199.55c94.719-90.68 217.94-70.961 285.8-6.3633 65.645 62.492 93.023 178.55-26.199 317.25-47.973 27.602-240.17 46.789-470.4 46.789-230.23 0-422.42-19.188-470.39-46.789-118.88-138.32-91.875-254.25-26.719-316.74 67.309-64.574 190.06-84.918 284.95 4.5508 47.059 44.371 85.137 52.031 129.24 60.895 22.457 4.5195 47.902 9.6289 78 20.441 3.1758 1.1367 6.6484 1.1367 9.8242 0 29.062-10.426 53.438-15.363 77.031-20.129 45.074-9.0977 84-16.984 128.86-59.902zm-170.93 117.17c-2.125-3.2148-5.4414-5.4531-9.2148-6.2266-3.7773-0.76953-7.7031-0.007813-10.918 2.1133-45.965 30.383-89.559 86.996-36.242 184.26 2.4961 4.5469 7.2227 7.418 12.41 7.5312 5.1836 0.11328 10.035-2.5469 12.727-6.9805 2.6875-4.4336 2.8125-9.9648 0.31641-14.512-35.25-64.281-26.73-110.71 26.805-146.08v0.003906c3.2109-2.125 5.4453-5.4336 6.2148-9.2031 0.77344-3.7695 0.015625-7.6914-2.0977-10.902zm187.11 26.25c-1.5938 3.5039-1.7305 7.5-0.37891 11.102 1.3555 3.6055 4.082 6.5273 7.5898 8.1172 1.8789 0.84766 3.9141 1.293 5.9766 1.3047 2.793 0.003906 5.5234-0.79688 7.8711-2.3086 2.3477-1.5117 4.2109-3.668 5.3633-6.207 33.145-72.992 81.797-103.79 148.79-94.188 3.832 0.59766 7.7422-0.36328 10.859-2.6719 3.1211-2.3047 5.1836-5.7656 5.7344-9.6055 0.55078-3.8359-0.46094-7.7383-2.8047-10.824-2.3477-3.0898-5.832-5.1133-9.6758-5.6133-80.324-11.539-140.68 25.766-179.32 110.9zm-431.31 49.742c-0.62891-3.8008-2.7422-7.1914-5.875-9.4297-3.1328-2.2383-7.0273-3.1367-10.824-2.5-80.391 13.402-140.78-21.797-184.64-107.64-2.3945-4.5508-7.0195-7.4961-12.16-7.7383-5.1367-0.24219-10.02 2.2539-12.832 6.5625-2.8125 4.3047-3.1328 9.7773-0.84375 14.387 42.871 83.93 102.7 126.24 178.23 126.24h-0.003906c12.406-0.042969 24.785-1.1016 37.02-3.1719 3.7969-0.63672 7.1875-2.7539 9.4258-5.8867 2.2344-3.1367 3.1367-7.0312 2.5039-10.828z" fill="#fff" fill-rule="evenodd"/>
</svg>
