<?xml version="1.0" encoding="UTF-8"?>
<svg width="1200pt" height="1200pt" version="1.1" viewBox="0 0 1200 1200" xmlns="http://www.w3.org/2000/svg">
 <path d="m936.94 472.12c98.062-24 175.5-42.938 159.94-153.56-25.43-121.17-205.82-64.387-262.68 11.809-46.27 56.406-105.14 49.945-59.625-20.059 67.684-102.94 54.371-179.81 22.309-214.31-56.805-52.766-165.3-1.8633-153.37 84.562 4.5781 61.512-7.5352 123.12-35.066 178.31-2.1992 6.5898-6.668 12.188-12.605 15.793-5.9414 3.6055-12.969 4.9844-19.832 3.8945-17.625-4.3125-27.188-28.875-24.75-64.125 6-93-21.188-125.44-33.562-135.38-10.41-16.289-25.32-29.211-42.926-37.199-17.605-7.9844-37.148-10.695-56.262-7.8008-105.75 19.016-184.5 156.29-74.254 254.81 117.94 102.94 100.32 148.12 99.566 150-5.0078 7.9141 0.45703 12.031-12.75 22.688-13.699 6.3203-29.352 6.9258-43.5 1.6875-69.363-19.551-117.11-1.5391-187.69 18.75-106.69 31.098-139.96 224.92-30.559 281.62 79.121 45.375 127.12-33 162-90.188 15.188-24.75 35.812-58.5 48-59.062 45.461 0.089844 52.531 55.25 38.812 93.375-4.5 12.188-12 17.25-27 26.438-28.5 17.625-67.5 41.625-85.875 146.25-16.102 103.85 28.742 141.75 98.621 144.57 28.758 0.023438 56.996-7.6836 81.754-22.316 49.125-32.062 49.875-171.56 45.75-251.81 0.16016-17.078 30.594-23.543 36-20.25-26.031 73.008-3.7578 123.81 59.066 189.94 19.758 24 47.691 39.84 78.43 44.48 30.738 4.6367 62.105-2.2578 88.066-19.355 26.062-15.938 23.25-53.625 19.875-101.25 0.25391-28.953-15.184-110.19 20.059-119.62 21.137-2.6992 42.477 3.1758 59.254 16.312 2.2344 44.969-16.359 104.53 66.938 138.19 17.25 7.082 36.691 6.5156 53.496-1.5664 16.805-8.082 29.391-22.914 34.629-40.809 22.5-54.562 6.5625-137.06-47.625-161.62-53.008-26.16-73.758-40.457-53.812-69 23.07-16.922 81.742 4.5273 102.38-25.504 8.418-12.445 10.629-28.078 6-42.371-20.988-76.52-98.871-58.41-150.56-66.562-7.6484-4.2539-13.953-10.57-18.195-18.223-4.2422-7.6562-6.2539-16.348-5.8047-25.09-0.375-27.188 20.062-47.25 57.375-56.438z" fill="#ff0696"/>
</svg>
