<?xml version="1.0" encoding="UTF-8"?>
<svg width="1200pt" height="1200pt" version="1.1" viewBox="0 0 1200 1200" xmlns="http://www.w3.org/2000/svg">
 <path d="m801.61 156c-2.3906-22.781-24-38.391-45.609-36-22.781 2.3906-38.391 24-36 45.609l16.781 128.39h-273.56l16.781-127.22c2.3906-22.781-13.219-43.219-36-45.609-22.781-2.3906-43.219 13.219-45.609 36l-112.78 877.22c-2.3906 22.781 13.219 43.219 36 45.609h4.7812c20.391 0 38.391-15.609 40.781-36l18-139.22h428.39l19.219 139.22c2.3906 20.391 20.391 36 40.781 36h4.7812c22.781-2.3906 38.391-24 36-45.609zm-349.22 222h294l12 92.391h-316.78zm-21.609 175.22h338.39l12 92.391h-362.39zm-34.781 268.78 12-92.391h384l12 92.391z"/>
</svg>
