<?xml version="1.0" encoding="UTF-8"?>
<svg width="1200pt" height="1200pt" version="1.1" viewBox="0 0 1200 1200" xmlns="http://www.w3.org/2000/svg">
 <path d="m390.88 393.86c20.648-1.5859 38.676 13.863 40.266 34.516l37.5 487.5c1.5859 20.648-13.863 38.676-34.516 40.266-20.648 1.5859-38.676-13.863-40.266-34.516l-37.5-487.5c-1.5859-20.648 13.863-38.676 34.516-40.266z" fill="#fff"/>
 <path d="m637.5 431.25c0-20.711-16.789-37.5-37.5-37.5s-37.5 16.789-37.5 37.5v487.5c0 20.711 16.789 37.5 37.5 37.5s37.5-16.789 37.5-37.5z" fill="#fff"/>
 <path d="m809.12 393.86c20.652 1.5898 36.102 19.617 34.516 40.266l-37.5 487.5c-1.5898 20.652-19.617 36.102-40.266 34.516-20.652-1.5898-36.102-19.617-34.516-40.266l37.5-487.5c1.5898-20.652 19.617-36.102 40.266-34.516z" fill="#fff"/>
 <path d="m835.53 187.5h195.72c20.711 0 37.5 16.789 37.5 37.5s-16.789 37.5-37.5 37.5h-21.746l-66.402 796.84c-4.8594 58.305-53.602 103.16-112.11 103.16h-461.98c-58.508 0-107.25-44.852-112.11-103.16l-66.402-796.84h-21.746c-20.711 0-37.5-16.789-37.5-37.5s16.789-37.5 37.5-37.5h195.72l16.199-64.785c12.52-50.082 57.52-85.215 109.14-85.215h220.38c51.621 0 96.621 35.133 109.14 85.215zm-77.312 0-11.645-46.594c-4.1758-16.695-19.176-28.406-36.383-28.406h-220.38c-17.207 0-32.207 11.711-36.383 28.406l-11.645 46.594zm-492.46 75 65.887 790.61c1.6172 19.438 17.867 34.387 37.367 34.387h461.98c19.5 0 35.75-14.949 37.367-34.387l65.887-790.61z" fill="#fff" fill-rule="evenodd"/>
</svg>
